<mxfile host="app.diagrams.net" modified="2023-03-01T04:01:25.086Z" agent="5.0 (Windows NT 10.0; Win64; x64) AppleWebKit/537.36 (KHTML, like Gecko) Chrome/110.0.0.0 Safari/537.36" etag="Z3BycJUTSOJfbZFs69YA" version="20.8.23" type="github" pages="4">
  <diagram name="페이지-1" id="sayw9rO7tbvS01IIlFyr">
    <mxGraphModel dx="2232" dy="864" grid="1" gridSize="10" guides="1" tooltips="1" connect="1" arrows="1" fold="1" page="1" pageScale="1" pageWidth="827" pageHeight="1169" math="0" shadow="0">
      <root>
        <mxCell id="0" />
        <mxCell id="1" parent="0" />
        <mxCell id="9UvphXqQE4aDw9bfN-vL-2" value="DAO" style="whiteSpace=wrap;html=1;" parent="1" vertex="1">
          <mxGeometry x="629" y="205" width="60" height="65" as="geometry" />
        </mxCell>
        <mxCell id="9UvphXqQE4aDw9bfN-vL-3" value="SERVICE" style="whiteSpace=wrap;html=1;" parent="1" vertex="1">
          <mxGeometry x="519" y="207.5" width="70" height="60" as="geometry" />
        </mxCell>
        <mxCell id="9UvphXqQE4aDw9bfN-vL-5" value="CONTROLLER" style="whiteSpace=wrap;html=1;" parent="1" vertex="1">
          <mxGeometry x="399" y="207.5" width="80" height="60" as="geometry" />
        </mxCell>
        <mxCell id="9UvphXqQE4aDw9bfN-vL-7" value="DS" style="whiteSpace=wrap;html=1;" parent="1" vertex="1">
          <mxGeometry x="189" y="206.25" width="70" height="62.5" as="geometry" />
        </mxCell>
        <mxCell id="9UvphXqQE4aDw9bfN-vL-9" value="JSP" style="rounded=0;whiteSpace=wrap;html=1;" parent="1" vertex="1">
          <mxGeometry x="40" y="400" width="80" height="60" as="geometry" />
        </mxCell>
        <mxCell id="9UvphXqQE4aDw9bfN-vL-10" value="Internal&lt;br&gt;Resource&lt;br&gt;ViewResolver" style="rounded=0;whiteSpace=wrap;html=1;" parent="1" vertex="1">
          <mxGeometry x="169" y="450" width="90" height="60" as="geometry" />
        </mxCell>
        <mxCell id="9UvphXqQE4aDw9bfN-vL-15" value="" style="endArrow=classic;html=1;rounded=0;entryX=0;entryY=0.5;entryDx=0;entryDy=0;" parent="1" source="9UvphXqQE4aDw9bfN-vL-7" target="9UvphXqQE4aDw9bfN-vL-5" edge="1">
          <mxGeometry width="50" height="50" relative="1" as="geometry">
            <mxPoint x="219" y="290" as="sourcePoint" />
            <mxPoint x="289.71067811865476" y="240" as="targetPoint" />
          </mxGeometry>
        </mxCell>
        <mxCell id="9UvphXqQE4aDw9bfN-vL-16" value="" style="endArrow=classic;html=1;rounded=0;entryX=0;entryY=0.5;entryDx=0;entryDy=0;" parent="1" source="9UvphXqQE4aDw9bfN-vL-5" target="9UvphXqQE4aDw9bfN-vL-3" edge="1">
          <mxGeometry width="50" height="50" relative="1" as="geometry">
            <mxPoint x="399" y="290" as="sourcePoint" />
            <mxPoint x="439" y="240" as="targetPoint" />
          </mxGeometry>
        </mxCell>
        <mxCell id="9UvphXqQE4aDw9bfN-vL-17" value="" style="endArrow=classic;html=1;rounded=0;entryX=0;entryY=0.5;entryDx=0;entryDy=0;" parent="1" source="9UvphXqQE4aDw9bfN-vL-3" target="9UvphXqQE4aDw9bfN-vL-2" edge="1">
          <mxGeometry width="50" height="50" relative="1" as="geometry">
            <mxPoint x="549" y="290" as="sourcePoint" />
            <mxPoint x="619.7106781186548" y="240" as="targetPoint" />
          </mxGeometry>
        </mxCell>
        <mxCell id="9UvphXqQE4aDw9bfN-vL-19" value="" style="endArrow=classic;html=1;rounded=0;entryX=0;entryY=0.5;entryDx=0;entryDy=0;entryPerimeter=0;" parent="1" source="9UvphXqQE4aDw9bfN-vL-2" target="9UvphXqQE4aDw9bfN-vL-39" edge="1">
          <mxGeometry width="50" height="50" relative="1" as="geometry">
            <mxPoint x="699" y="290" as="sourcePoint" />
            <mxPoint x="729" y="243" as="targetPoint" />
          </mxGeometry>
        </mxCell>
        <mxCell id="9UvphXqQE4aDw9bfN-vL-27" value="" style="endArrow=classic;html=1;rounded=0;entryX=1;entryY=0.75;entryDx=0;entryDy=0;exitX=0;exitY=0.75;exitDx=0;exitDy=0;" parent="1" source="9UvphXqQE4aDw9bfN-vL-3" target="9UvphXqQE4aDw9bfN-vL-5" edge="1">
          <mxGeometry relative="1" as="geometry">
            <mxPoint x="377.5" y="260" as="sourcePoint" />
            <mxPoint x="277.5" y="260" as="targetPoint" />
          </mxGeometry>
        </mxCell>
        <mxCell id="9UvphXqQE4aDw9bfN-vL-28" value="" style="shape=message;html=1;outlineConnect=0;" parent="9UvphXqQE4aDw9bfN-vL-27" vertex="1">
          <mxGeometry width="20" height="14" relative="1" as="geometry">
            <mxPoint x="-10" y="-7" as="offset" />
          </mxGeometry>
        </mxCell>
        <mxCell id="9UvphXqQE4aDw9bfN-vL-29" value="" style="endArrow=classic;html=1;rounded=0;exitX=0;exitY=0.75;exitDx=0;exitDy=0;entryX=1;entryY=0.75;entryDx=0;entryDy=0;" parent="1" source="9UvphXqQE4aDw9bfN-vL-2" target="9UvphXqQE4aDw9bfN-vL-3" edge="1">
          <mxGeometry relative="1" as="geometry">
            <mxPoint x="529" y="260" as="sourcePoint" />
            <mxPoint x="439" y="260" as="targetPoint" />
          </mxGeometry>
        </mxCell>
        <mxCell id="9UvphXqQE4aDw9bfN-vL-30" value="" style="shape=message;html=1;outlineConnect=0;" parent="9UvphXqQE4aDw9bfN-vL-29" vertex="1">
          <mxGeometry width="20" height="10" relative="1" as="geometry">
            <mxPoint x="-10" y="-7" as="offset" />
          </mxGeometry>
        </mxCell>
        <mxCell id="9UvphXqQE4aDw9bfN-vL-35" value="" style="endArrow=classic;html=1;rounded=0;entryX=1;entryY=0.679;entryDx=0;entryDy=0;exitX=0;exitY=0;exitDx=0;exitDy=52.5;exitPerimeter=0;entryPerimeter=0;" parent="1" source="9UvphXqQE4aDw9bfN-vL-39" target="9UvphXqQE4aDw9bfN-vL-2" edge="1">
          <mxGeometry relative="1" as="geometry">
            <mxPoint x="729" y="263" as="sourcePoint" />
            <mxPoint x="599" y="260" as="targetPoint" />
          </mxGeometry>
        </mxCell>
        <mxCell id="9UvphXqQE4aDw9bfN-vL-36" value="" style="shape=message;html=1;outlineConnect=0;" parent="9UvphXqQE4aDw9bfN-vL-35" vertex="1">
          <mxGeometry width="20" height="14" relative="1" as="geometry">
            <mxPoint x="-10" y="-7" as="offset" />
          </mxGeometry>
        </mxCell>
        <mxCell id="9UvphXqQE4aDw9bfN-vL-37" value="ModelAndView" style="text;html=1;strokeColor=none;fillColor=none;align=center;verticalAlign=middle;whiteSpace=wrap;rounded=0;" parent="1" vertex="1">
          <mxGeometry x="289" y="267.5" width="90" height="30" as="geometry" />
        </mxCell>
        <mxCell id="9UvphXqQE4aDw9bfN-vL-39" value="DB" style="shape=cylinder3;whiteSpace=wrap;html=1;boundedLbl=1;backgroundOutline=1;size=15;" parent="1" vertex="1">
          <mxGeometry x="739" y="197.5" width="60" height="80" as="geometry" />
        </mxCell>
        <mxCell id="9UvphXqQE4aDw9bfN-vL-41" value="" style="endArrow=classic;html=1;rounded=0;exitX=0;exitY=0.75;exitDx=0;exitDy=0;entryX=1;entryY=0.75;entryDx=0;entryDy=0;" parent="1" source="9UvphXqQE4aDw9bfN-vL-5" target="9UvphXqQE4aDw9bfN-vL-7" edge="1">
          <mxGeometry relative="1" as="geometry">
            <mxPoint x="209" y="260" as="sourcePoint" />
            <mxPoint x="139" y="260" as="targetPoint" />
          </mxGeometry>
        </mxCell>
        <mxCell id="9UvphXqQE4aDw9bfN-vL-42" value="" style="shape=message;html=1;outlineConnect=0;" parent="9UvphXqQE4aDw9bfN-vL-41" vertex="1">
          <mxGeometry width="20" height="14" relative="1" as="geometry">
            <mxPoint x="-10" y="-7" as="offset" />
          </mxGeometry>
        </mxCell>
        <mxCell id="9UvphXqQE4aDw9bfN-vL-43" value="" style="endArrow=classic;html=1;rounded=0;entryX=0;entryY=1;entryDx=0;entryDy=0;exitX=0;exitY=0;exitDx=0;exitDy=0;" parent="1" source="9UvphXqQE4aDw9bfN-vL-9" target="9UvphXqQE4aDw9bfN-vL-7" edge="1">
          <mxGeometry width="50" height="50" relative="1" as="geometry">
            <mxPoint x="139" y="370" as="sourcePoint" />
            <mxPoint x="189" y="320" as="targetPoint" />
          </mxGeometry>
        </mxCell>
        <mxCell id="9UvphXqQE4aDw9bfN-vL-44" value="" style="endArrow=classic;html=1;rounded=0;entryX=0.75;entryY=0;entryDx=0;entryDy=0;startArrow=none;exitX=0;exitY=1;exitDx=0;exitDy=0;" parent="1" source="9UvphXqQE4aDw9bfN-vL-45" target="9UvphXqQE4aDw9bfN-vL-9" edge="1">
          <mxGeometry width="50" height="50" relative="1" as="geometry">
            <mxPoint x="159" y="340" as="sourcePoint" />
            <mxPoint x="269" y="300" as="targetPoint" />
          </mxGeometry>
        </mxCell>
        <mxCell id="9UvphXqQE4aDw9bfN-vL-46" value="" style="endArrow=none;html=1;rounded=0;entryX=0.5;entryY=0;entryDx=0;entryDy=0;exitX=0.25;exitY=1;exitDx=0;exitDy=0;" parent="1" source="9UvphXqQE4aDw9bfN-vL-7" target="9UvphXqQE4aDw9bfN-vL-45" edge="1">
          <mxGeometry width="50" height="50" relative="1" as="geometry">
            <mxPoint x="236.5" y="268.75" as="sourcePoint" />
            <mxPoint x="199" y="370" as="targetPoint" />
          </mxGeometry>
        </mxCell>
        <mxCell id="9UvphXqQE4aDw9bfN-vL-45" value="Model" style="text;html=1;strokeColor=none;fillColor=none;align=center;verticalAlign=middle;whiteSpace=wrap;rounded=0;" parent="1" vertex="1">
          <mxGeometry x="149" y="310" width="60" height="30" as="geometry" />
        </mxCell>
        <mxCell id="9UvphXqQE4aDw9bfN-vL-47" value="" style="endArrow=classic;html=1;rounded=0;exitX=0;exitY=0;exitDx=0;exitDy=0;entryX=0.75;entryY=1;entryDx=0;entryDy=0;" parent="1" source="9UvphXqQE4aDw9bfN-vL-10" target="9UvphXqQE4aDw9bfN-vL-7" edge="1">
          <mxGeometry width="50" height="50" relative="1" as="geometry">
            <mxPoint x="279" y="350" as="sourcePoint" />
            <mxPoint x="329" y="300" as="targetPoint" />
          </mxGeometry>
        </mxCell>
        <mxCell id="9UvphXqQE4aDw9bfN-vL-48" value="" style="endArrow=classic;html=1;rounded=0;entryX=0.75;entryY=0;entryDx=0;entryDy=0;startArrow=none;" parent="1" target="9UvphXqQE4aDw9bfN-vL-10" edge="1">
          <mxGeometry width="50" height="50" relative="1" as="geometry">
            <mxPoint x="250" y="350" as="sourcePoint" />
            <mxPoint x="359" y="350" as="targetPoint" />
            <Array as="points" />
          </mxGeometry>
        </mxCell>
        <mxCell id="9UvphXqQE4aDw9bfN-vL-49" value="" style="endArrow=none;html=1;rounded=0;entryX=0.5;entryY=0;entryDx=0;entryDy=0;" parent="1" target="9UvphXqQE4aDw9bfN-vL-50" edge="1">
          <mxGeometry width="50" height="50" relative="1" as="geometry">
            <mxPoint x="250" y="280" as="sourcePoint" />
            <mxPoint x="356.5" y="370" as="targetPoint" />
          </mxGeometry>
        </mxCell>
        <mxCell id="9UvphXqQE4aDw9bfN-vL-50" value="View" style="text;html=1;strokeColor=none;fillColor=none;align=center;verticalAlign=middle;whiteSpace=wrap;rounded=0;" parent="1" vertex="1">
          <mxGeometry x="220" y="320" width="60" height="30" as="geometry" />
        </mxCell>
        <mxCell id="9UvphXqQE4aDw9bfN-vL-51" value="Request" style="ellipse;whiteSpace=wrap;html=1;aspect=fixed;" parent="1" vertex="1">
          <mxGeometry x="29" y="100" width="60" height="60" as="geometry" />
        </mxCell>
        <mxCell id="9UvphXqQE4aDw9bfN-vL-52" value="Response" style="ellipse;whiteSpace=wrap;html=1;aspect=fixed;" parent="1" vertex="1">
          <mxGeometry x="129" y="100" width="60" height="60" as="geometry" />
        </mxCell>
        <mxCell id="9UvphXqQE4aDw9bfN-vL-53" value="" style="endArrow=classic;html=1;rounded=0;entryX=0;entryY=0;entryDx=0;entryDy=0;exitX=1;exitY=0.5;exitDx=0;exitDy=0;" parent="1" source="9UvphXqQE4aDw9bfN-vL-52" target="9UvphXqQE4aDw9bfN-vL-7" edge="1">
          <mxGeometry width="50" height="50" relative="1" as="geometry">
            <mxPoint x="99" y="230" as="sourcePoint" />
            <mxPoint x="149" y="180" as="targetPoint" />
          </mxGeometry>
        </mxCell>
        <mxCell id="9UvphXqQE4aDw9bfN-vL-54" value="" style="endArrow=classic;html=1;rounded=0;entryX=0;entryY=0;entryDx=0;entryDy=0;exitX=1;exitY=1;exitDx=0;exitDy=0;" parent="1" source="9UvphXqQE4aDw9bfN-vL-51" target="9UvphXqQE4aDw9bfN-vL-7" edge="1">
          <mxGeometry width="50" height="50" relative="1" as="geometry">
            <mxPoint x="69" y="230" as="sourcePoint" />
            <mxPoint x="119" y="180" as="targetPoint" />
          </mxGeometry>
        </mxCell>
        <mxCell id="9UvphXqQE4aDw9bfN-vL-55" value="prefix-ViewName-surfix" style="text;html=1;strokeColor=none;fillColor=none;align=center;verticalAlign=middle;whiteSpace=wrap;rounded=0;" parent="1" vertex="1">
          <mxGeometry x="219" y="510" width="160" height="30" as="geometry" />
        </mxCell>
        <mxCell id="9UvphXqQE4aDw9bfN-vL-56" value="&lt;font style=&quot;font-size: 18px;&quot;&gt;Fowarding, Redirect&lt;/font&gt;" style="text;html=1;strokeColor=none;fillColor=none;align=center;verticalAlign=middle;whiteSpace=wrap;rounded=0;" parent="1" vertex="1">
          <mxGeometry x="30" y="40" width="170" height="30" as="geometry" />
        </mxCell>
        <mxCell id="9UvphXqQE4aDw9bfN-vL-57" value="&lt;font style=&quot;font-size: 12px;&quot;&gt;URL(ip:port), Method, parameter&lt;/font&gt;" style="text;html=1;strokeColor=none;fillColor=none;align=center;verticalAlign=middle;whiteSpace=wrap;rounded=0;fontSize=18;" parent="1" vertex="1">
          <mxGeometry y="160" width="220" height="30" as="geometry" />
        </mxCell>
        <mxCell id="9UvphXqQE4aDw9bfN-vL-58" value="" style="endArrow=classic;html=1;rounded=0;fontSize=12;exitX=0;exitY=0.5;exitDx=0;exitDy=0;startArrow=none;" parent="1" source="9UvphXqQE4aDw9bfN-vL-61" edge="1">
          <mxGeometry width="50" height="50" relative="1" as="geometry">
            <mxPoint x="109" y="260" as="sourcePoint" />
            <mxPoint x="59" y="222" as="targetPoint" />
          </mxGeometry>
        </mxCell>
        <mxCell id="9UvphXqQE4aDw9bfN-vL-59" value="" style="endArrow=classic;html=1;rounded=0;fontSize=12;exitX=0;exitY=0.75;exitDx=0;exitDy=0;" parent="1" source="9UvphXqQE4aDw9bfN-vL-7" edge="1">
          <mxGeometry width="50" height="50" relative="1" as="geometry">
            <mxPoint x="109" y="290" as="sourcePoint" />
            <mxPoint x="59" y="253" as="targetPoint" />
          </mxGeometry>
        </mxCell>
        <mxCell id="9UvphXqQE4aDw9bfN-vL-60" value="" style="endArrow=none;html=1;rounded=0;fontSize=12;exitX=0;exitY=0.25;exitDx=0;exitDy=0;" parent="1" source="9UvphXqQE4aDw9bfN-vL-7" target="9UvphXqQE4aDw9bfN-vL-61" edge="1">
          <mxGeometry width="50" height="50" relative="1" as="geometry">
            <mxPoint x="189" y="221.8749999999999" as="sourcePoint" />
            <mxPoint x="59" y="222" as="targetPoint" />
          </mxGeometry>
        </mxCell>
        <mxCell id="9UvphXqQE4aDw9bfN-vL-61" value="Redirect" style="text;html=1;strokeColor=none;fillColor=none;align=center;verticalAlign=middle;whiteSpace=wrap;rounded=0;fontSize=12;" parent="1" vertex="1">
          <mxGeometry x="99" y="207" width="50" height="30" as="geometry" />
        </mxCell>
        <mxCell id="LHPNSRR_vipN_zTF92HG-1" value="JSP경로" style="text;html=1;align=center;verticalAlign=middle;resizable=0;points=[];autosize=1;strokeColor=none;fillColor=none;" parent="1" vertex="1">
          <mxGeometry x="169" y="510" width="70" height="30" as="geometry" />
        </mxCell>
        <mxCell id="F3mSPRoAX71vT5a_9Pu8-4" value="" style="edgeStyle=orthogonalEdgeStyle;rounded=0;orthogonalLoop=1;jettySize=auto;html=1;" parent="1" source="F3mSPRoAX71vT5a_9Pu8-1" target="F3mSPRoAX71vT5a_9Pu8-3" edge="1">
          <mxGeometry relative="1" as="geometry" />
        </mxCell>
        <mxCell id="F3mSPRoAX71vT5a_9Pu8-5" value="" style="edgeStyle=orthogonalEdgeStyle;rounded=0;orthogonalLoop=1;jettySize=auto;html=1;" parent="1" source="F3mSPRoAX71vT5a_9Pu8-1" target="F3mSPRoAX71vT5a_9Pu8-2" edge="1">
          <mxGeometry relative="1" as="geometry" />
        </mxCell>
        <mxCell id="F3mSPRoAX71vT5a_9Pu8-1" value="List Page" style="whiteSpace=wrap;html=1;aspect=fixed;" parent="1" vertex="1">
          <mxGeometry x="120" y="730" width="80" height="80" as="geometry" />
        </mxCell>
        <mxCell id="F3mSPRoAX71vT5a_9Pu8-10" value="" style="edgeStyle=orthogonalEdgeStyle;rounded=0;orthogonalLoop=1;jettySize=auto;html=1;" parent="1" source="F3mSPRoAX71vT5a_9Pu8-2" target="F3mSPRoAX71vT5a_9Pu8-7" edge="1">
          <mxGeometry relative="1" as="geometry" />
        </mxCell>
        <mxCell id="F3mSPRoAX71vT5a_9Pu8-13" value="" style="edgeStyle=orthogonalEdgeStyle;rounded=0;orthogonalLoop=1;jettySize=auto;html=1;" parent="1" source="F3mSPRoAX71vT5a_9Pu8-2" target="F3mSPRoAX71vT5a_9Pu8-12" edge="1">
          <mxGeometry relative="1" as="geometry" />
        </mxCell>
        <mxCell id="F3mSPRoAX71vT5a_9Pu8-2" value="Detail Page" style="whiteSpace=wrap;html=1;aspect=fixed;" parent="1" vertex="1">
          <mxGeometry x="269" y="730" width="80" height="80" as="geometry" />
        </mxCell>
        <mxCell id="F3mSPRoAX71vT5a_9Pu8-3" value="Add Page" style="whiteSpace=wrap;html=1;aspect=fixed;" parent="1" vertex="1">
          <mxGeometry x="120" y="880" width="80" height="80" as="geometry" />
        </mxCell>
        <mxCell id="F3mSPRoAX71vT5a_9Pu8-7" value="Delete Page" style="whiteSpace=wrap;html=1;aspect=fixed;" parent="1" vertex="1">
          <mxGeometry x="439" y="730" width="80" height="80" as="geometry" />
        </mxCell>
        <mxCell id="F3mSPRoAX71vT5a_9Pu8-8" value="" style="endArrow=block;dashed=1;endFill=0;endSize=12;html=1;rounded=0;exitX=0.25;exitY=0;exitDx=0;exitDy=0;entryX=0.25;entryY=1;entryDx=0;entryDy=0;" parent="1" source="F3mSPRoAX71vT5a_9Pu8-3" target="F3mSPRoAX71vT5a_9Pu8-1" edge="1">
          <mxGeometry width="160" relative="1" as="geometry">
            <mxPoint x="240" y="700" as="sourcePoint" />
            <mxPoint x="400" y="700" as="targetPoint" />
          </mxGeometry>
        </mxCell>
        <mxCell id="F3mSPRoAX71vT5a_9Pu8-11" value="" style="endArrow=block;dashed=1;endFill=0;endSize=12;html=1;rounded=0;exitX=1;exitY=0.5;exitDx=0;exitDy=0;entryX=0.5;entryY=0;entryDx=0;entryDy=0;" parent="1" source="F3mSPRoAX71vT5a_9Pu8-7" target="F3mSPRoAX71vT5a_9Pu8-1" edge="1">
          <mxGeometry width="160" relative="1" as="geometry">
            <mxPoint x="490" y="720" as="sourcePoint" />
            <mxPoint x="400" y="700" as="targetPoint" />
            <Array as="points">
              <mxPoint x="640" y="770" />
              <mxPoint x="640" y="640" />
              <mxPoint x="160" y="640" />
            </Array>
          </mxGeometry>
        </mxCell>
        <mxCell id="F3mSPRoAX71vT5a_9Pu8-12" value="Delete Page" style="whiteSpace=wrap;html=1;aspect=fixed;" parent="1" vertex="1">
          <mxGeometry x="269" y="880" width="80" height="80" as="geometry" />
        </mxCell>
        <mxCell id="F3mSPRoAX71vT5a_9Pu8-14" value="" style="endArrow=block;dashed=1;endFill=0;endSize=12;html=1;rounded=0;exitX=1;exitY=0.5;exitDx=0;exitDy=0;" parent="1" source="F3mSPRoAX71vT5a_9Pu8-12" edge="1">
          <mxGeometry width="160" relative="1" as="geometry">
            <mxPoint x="380" y="919.58" as="sourcePoint" />
            <mxPoint x="640" y="770" as="targetPoint" />
            <Array as="points">
              <mxPoint x="640" y="920" />
            </Array>
          </mxGeometry>
        </mxCell>
        <mxCell id="d8g-K_QxA2grWtrwy55E-10" style="edgeStyle=orthogonalEdgeStyle;rounded=0;orthogonalLoop=1;jettySize=auto;html=1;exitX=1;exitY=0.3333333333333333;exitDx=0;exitDy=0;exitPerimeter=0;entryX=0;entryY=0.25;entryDx=0;entryDy=0;fontFamily=Helvetica;fontSize=12;fontColor=default;" parent="1" source="d8g-K_QxA2grWtrwy55E-2" target="d8g-K_QxA2grWtrwy55E-9" edge="1">
          <mxGeometry relative="1" as="geometry" />
        </mxCell>
        <mxCell id="d8g-K_QxA2grWtrwy55E-2" value="Client" style="shape=umlActor;verticalLabelPosition=bottom;verticalAlign=top;html=1;outlineConnect=0;" parent="1" vertex="1">
          <mxGeometry x="130" y="1000" width="100" height="109" as="geometry" />
        </mxCell>
        <mxCell id="d8g-K_QxA2grWtrwy55E-11" style="edgeStyle=orthogonalEdgeStyle;rounded=0;orthogonalLoop=1;jettySize=auto;html=1;exitX=1;exitY=0.3333333333333333;exitDx=0;exitDy=0;exitPerimeter=0;entryX=0.004;entryY=0.633;entryDx=0;entryDy=0;entryPerimeter=0;fontFamily=Helvetica;fontSize=12;fontColor=default;" parent="1" source="d8g-K_QxA2grWtrwy55E-8" target="d8g-K_QxA2grWtrwy55E-9" edge="1">
          <mxGeometry relative="1" as="geometry" />
        </mxCell>
        <mxCell id="d8g-K_QxA2grWtrwy55E-8" value="Client" style="shape=umlActor;verticalLabelPosition=bottom;verticalAlign=top;html=1;outlineConnect=0;" parent="1" vertex="1">
          <mxGeometry x="130" y="1200" width="100" height="109" as="geometry" />
        </mxCell>
        <mxCell id="d8g-K_QxA2grWtrwy55E-12" style="edgeStyle=orthogonalEdgeStyle;rounded=0;orthogonalLoop=1;jettySize=auto;html=1;exitX=0;exitY=0.75;exitDx=0;exitDy=0;fontFamily=Helvetica;fontSize=12;fontColor=default;" parent="1" source="d8g-K_QxA2grWtrwy55E-9" target="d8g-K_QxA2grWtrwy55E-8" edge="1">
          <mxGeometry relative="1" as="geometry">
            <Array as="points">
              <mxPoint x="429" y="1270" />
              <mxPoint x="330" y="1270" />
              <mxPoint x="330" y="1300" />
            </Array>
          </mxGeometry>
        </mxCell>
        <mxCell id="d8g-K_QxA2grWtrwy55E-13" style="edgeStyle=orthogonalEdgeStyle;rounded=0;orthogonalLoop=1;jettySize=auto;html=1;exitX=0;exitY=0;exitDx=0;exitDy=0;entryX=0.75;entryY=0.1;entryDx=0;entryDy=0;entryPerimeter=0;fontFamily=Helvetica;fontSize=12;fontColor=default;" parent="1" source="d8g-K_QxA2grWtrwy55E-9" target="d8g-K_QxA2grWtrwy55E-2" edge="1">
          <mxGeometry relative="1" as="geometry" />
        </mxCell>
        <mxCell id="d8g-K_QxA2grWtrwy55E-9" value="Server&amp;nbsp;&lt;br&gt;&lt;br&gt;Session Table&lt;br&gt;ID&amp;nbsp; &amp;nbsp; &amp;nbsp; &amp;nbsp;SESSION&lt;br&gt;1&amp;nbsp; &amp;nbsp; &amp;nbsp; &amp;nbsp; &amp;nbsp; &amp;nbsp; &amp;nbsp; DATA&lt;br&gt;2&amp;nbsp; &amp;nbsp; &amp;nbsp; &amp;nbsp; &amp;nbsp; &amp;nbsp; &amp;nbsp; DATA" style="whiteSpace=wrap;html=1;aspect=fixed;strokeColor=default;fontFamily=Helvetica;fontSize=12;fontColor=default;fillColor=default;" parent="1" vertex="1">
          <mxGeometry x="429" y="1050" width="240" height="240" as="geometry" />
        </mxCell>
        <mxCell id="d8g-K_QxA2grWtrwy55E-14" value="Cookie" style="text;html=1;strokeColor=none;fillColor=none;align=center;verticalAlign=middle;whiteSpace=wrap;rounded=0;fontSize=12;fontFamily=Helvetica;fontColor=default;" parent="1" vertex="1">
          <mxGeometry x="250" y="1050" width="60" height="30" as="geometry" />
        </mxCell>
        <mxCell id="d8g-K_QxA2grWtrwy55E-15" value="Cookie" style="text;html=1;strokeColor=none;fillColor=none;align=center;verticalAlign=middle;whiteSpace=wrap;rounded=0;fontSize=12;fontFamily=Helvetica;fontColor=default;" parent="1" vertex="1">
          <mxGeometry x="354" y="1020" width="60" height="30" as="geometry" />
        </mxCell>
        <mxCell id="d8g-K_QxA2grWtrwy55E-16" value="Cookie" style="text;html=1;strokeColor=none;fillColor=none;align=center;verticalAlign=middle;whiteSpace=wrap;rounded=0;fontSize=12;fontFamily=Helvetica;fontColor=default;" parent="1" vertex="1">
          <mxGeometry x="249.5" y="1254.5" width="60" height="30" as="geometry" />
        </mxCell>
        <mxCell id="d8g-K_QxA2grWtrwy55E-17" value="Cookie" style="text;html=1;strokeColor=none;fillColor=none;align=center;verticalAlign=middle;whiteSpace=wrap;rounded=0;fontSize=12;fontFamily=Helvetica;fontColor=default;" parent="1" vertex="1">
          <mxGeometry x="353.5" y="1224.5" width="60" height="30" as="geometry" />
        </mxCell>
        <mxCell id="XYoYRP7dbMhdnck9heIl-1" value="BeanName&lt;br&gt;ViewResolver" style="whiteSpace=wrap;html=1;aspect=fixed;" parent="1" vertex="1">
          <mxGeometry x="359" y="420" width="80" height="80" as="geometry" />
        </mxCell>
        <mxCell id="XYoYRP7dbMhdnck9heIl-2" value="" style="endArrow=classic;html=1;rounded=0;exitX=0;exitY=0.25;exitDx=0;exitDy=0;" parent="1" source="XYoYRP7dbMhdnck9heIl-1" edge="1">
          <mxGeometry width="50" height="50" relative="1" as="geometry">
            <mxPoint x="460" y="420" as="sourcePoint" />
            <mxPoint x="270" y="280" as="targetPoint" />
            <Array as="points" />
          </mxGeometry>
        </mxCell>
        <mxCell id="XYoYRP7dbMhdnck9heIl-3" value="" style="endArrow=classic;html=1;rounded=0;entryX=0.25;entryY=0;entryDx=0;entryDy=0;" parent="1" target="XYoYRP7dbMhdnck9heIl-1" edge="1">
          <mxGeometry width="50" height="50" relative="1" as="geometry">
            <mxPoint x="280" y="270" as="sourcePoint" />
            <mxPoint x="500" y="380" as="targetPoint" />
          </mxGeometry>
        </mxCell>
        <mxCell id="XYoYRP7dbMhdnck9heIl-4" value="&lt;font style=&quot;font-size: 14px;&quot;&gt;&lt;b&gt;servlet-context.xml 에서 ds전용 spring 객체들 계속해서 만들 수 있음&lt;br&gt;&lt;/b&gt;&lt;/font&gt;" style="text;html=1;strokeColor=none;fillColor=none;align=center;verticalAlign=middle;whiteSpace=wrap;rounded=0;" parent="1" vertex="1">
          <mxGeometry x="103.5" y="560" width="241" height="25" as="geometry" />
        </mxCell>
        <mxCell id="XYoYRP7dbMhdnck9heIl-5" value="Client" style="whiteSpace=wrap;html=1;aspect=fixed;fontSize=14;" parent="1" vertex="1">
          <mxGeometry x="-50" y="197.5" width="80" height="80" as="geometry" />
        </mxCell>
        <mxCell id="XYoYRP7dbMhdnck9heIl-8" value="filter" style="whiteSpace=wrap;html=1;aspect=fixed;fontSize=14;" parent="1" vertex="1">
          <mxGeometry x="200" y="70" width="60" height="60" as="geometry" />
        </mxCell>
        <mxCell id="XYoYRP7dbMhdnck9heIl-9" value="inter&lt;br&gt;ceptor" style="whiteSpace=wrap;html=1;aspect=fixed;fontSize=14;" parent="1" vertex="1">
          <mxGeometry x="294" y="70" width="60" height="60" as="geometry" />
        </mxCell>
        <mxCell id="XYoYRP7dbMhdnck9heIl-13" value="" style="endArrow=classic;startArrow=classic;html=1;rounded=0;fontSize=14;entryX=0.25;entryY=1;entryDx=0;entryDy=0;exitX=0.414;exitY=-0.004;exitDx=0;exitDy=0;exitPerimeter=0;" parent="1" edge="1" target="XYoYRP7dbMhdnck9heIl-8" source="9UvphXqQE4aDw9bfN-vL-7">
          <mxGeometry width="50" height="50" relative="1" as="geometry">
            <mxPoint x="220" y="200" as="sourcePoint" />
            <mxPoint x="220" y="140" as="targetPoint" />
          </mxGeometry>
        </mxCell>
        <mxCell id="XYoYRP7dbMhdnck9heIl-14" value="" style="endArrow=classic;startArrow=classic;html=1;rounded=0;fontSize=14;entryX=0.5;entryY=1;entryDx=0;entryDy=0;" parent="1" edge="1" target="XYoYRP7dbMhdnck9heIl-9">
          <mxGeometry width="50" height="50" relative="1" as="geometry">
            <mxPoint x="250" y="206.25" as="sourcePoint" />
            <mxPoint x="290" y="166.25" as="targetPoint" />
            <Array as="points">
              <mxPoint x="270" y="186.25" />
              <mxPoint x="280" y="176.25" />
            </Array>
          </mxGeometry>
        </mxCell>
        <mxCell id="XYoYRP7dbMhdnck9heIl-16" value="web.xml에서 tomcat 객체 계속 만들 수 있음" style="text;html=1;strokeColor=none;fillColor=none;align=center;verticalAlign=middle;whiteSpace=wrap;rounded=0;fontSize=14;" parent="1" vertex="1">
          <mxGeometry x="230" y="30" width="121" height="30" as="geometry" />
        </mxCell>
        <mxCell id="2Na72p_Z-KiafIRG1AjZ-1" value="&lt;font style=&quot;font-size: 14px;&quot;&gt;&lt;b&gt;&lt;br&gt;???-context.xml 에 spring 객체들 계속해서 만들 수 있음&lt;br&gt;&lt;/b&gt;&lt;/font&gt;" style="text;html=1;strokeColor=none;fillColor=none;align=center;verticalAlign=middle;whiteSpace=wrap;rounded=0;" vertex="1" parent="1">
          <mxGeometry x="519" y="415" width="241" height="30" as="geometry" />
        </mxCell>
        <mxCell id="2Na72p_Z-KiafIRG1AjZ-3" value="" style="edgeStyle=orthogonalEdgeStyle;rounded=0;orthogonalLoop=1;jettySize=auto;html=1;entryX=0.5;entryY=1;entryDx=0;entryDy=0;exitX=0.5;exitY=0;exitDx=0;exitDy=0;" edge="1" parent="1" source="2Na72p_Z-KiafIRG1AjZ-2" target="9UvphXqQE4aDw9bfN-vL-2">
          <mxGeometry relative="1" as="geometry" />
        </mxCell>
        <mxCell id="2Na72p_Z-KiafIRG1AjZ-2" value="SqlSession" style="whiteSpace=wrap;html=1;aspect=fixed;" vertex="1" parent="1">
          <mxGeometry x="619" y="340" width="70" height="70" as="geometry" />
        </mxCell>
      </root>
    </mxGraphModel>
  </diagram>
  <diagram id="4-7YW6rvqAmz8nTC65Zh" name="페이지-2">
    <mxGraphModel dx="1434" dy="756" grid="1" gridSize="10" guides="1" tooltips="1" connect="1" arrows="1" fold="1" page="1" pageScale="1" pageWidth="1169" pageHeight="827" math="0" shadow="0">
      <root>
        <mxCell id="0" />
        <mxCell id="1" parent="0" />
        <mxCell id="aifYJP49HdyUbDu9bETy-1" value="ProductDAO" style="swimlane;fontStyle=1;align=center;verticalAlign=top;childLayout=stackLayout;horizontal=1;startSize=26;horizontalStack=0;resizeParent=1;resizeParentMax=0;resizeLast=0;collapsible=1;marginBottom=0;" parent="1" vertex="1">
          <mxGeometry x="840" y="60" width="280" height="130" as="geometry" />
        </mxCell>
        <mxCell id="aifYJP49HdyUbDu9bETy-2" value="- sqlSession : SqlSession&#xa;-NAMESPACE : String" style="text;strokeColor=none;fillColor=none;align=left;verticalAlign=top;spacingLeft=4;spacingRight=4;overflow=hidden;rotatable=0;points=[[0,0.5],[1,0.5]];portConstraint=eastwest;" parent="aifYJP49HdyUbDu9bETy-1" vertex="1">
          <mxGeometry y="26" width="280" height="34" as="geometry" />
        </mxCell>
        <mxCell id="aifYJP49HdyUbDu9bETy-3" value="" style="line;strokeWidth=1;fillColor=none;align=left;verticalAlign=middle;spacingTop=-1;spacingLeft=3;spacingRight=3;rotatable=0;labelPosition=right;points=[];portConstraint=eastwest;strokeColor=inherit;" parent="aifYJP49HdyUbDu9bETy-1" vertex="1">
          <mxGeometry y="60" width="280" height="8" as="geometry" />
        </mxCell>
        <mxCell id="aifYJP49HdyUbDu9bETy-4" value="+ getProductList() :  List&lt;ProductDTO&gt;&#xa;+ getProductDetail(ProductDTO) : ProductDTO&#xa;+ setAddProduct(ProductDTO) : int " style="text;strokeColor=none;fillColor=none;align=left;verticalAlign=top;spacingLeft=4;spacingRight=4;overflow=hidden;rotatable=0;points=[[0,0.5],[1,0.5]];portConstraint=eastwest;" parent="aifYJP49HdyUbDu9bETy-1" vertex="1">
          <mxGeometry y="68" width="280" height="62" as="geometry" />
        </mxCell>
        <mxCell id="aifYJP49HdyUbDu9bETy-5" value="&lt;font style=&quot;font-size: 18px;&quot;&gt;Product&lt;/font&gt;" style="text;html=1;strokeColor=none;fillColor=none;align=center;verticalAlign=middle;whiteSpace=wrap;rounded=0;strokeWidth=1;" parent="1" vertex="1">
          <mxGeometry x="40" y="20" width="60" height="30" as="geometry" />
        </mxCell>
        <mxCell id="aifYJP49HdyUbDu9bETy-6" value="ProductService" style="swimlane;fontStyle=1;align=center;verticalAlign=top;childLayout=stackLayout;horizontal=1;startSize=26;horizontalStack=0;resizeParent=1;resizeParentMax=0;resizeLast=0;collapsible=1;marginBottom=0;" parent="1" vertex="1">
          <mxGeometry x="400" y="60" width="360" height="140" as="geometry" />
        </mxCell>
        <mxCell id="aifYJP49HdyUbDu9bETy-7" value="- productDAO : ProductDAO" style="text;strokeColor=none;fillColor=none;align=left;verticalAlign=top;spacingLeft=4;spacingRight=4;overflow=hidden;rotatable=0;points=[[0,0.5],[1,0.5]];portConstraint=eastwest;" parent="aifYJP49HdyUbDu9bETy-6" vertex="1">
          <mxGeometry y="26" width="360" height="24" as="geometry" />
        </mxCell>
        <mxCell id="aifYJP49HdyUbDu9bETy-8" value="" style="line;strokeWidth=1;fillColor=none;align=left;verticalAlign=middle;spacingTop=-1;spacingLeft=3;spacingRight=3;rotatable=0;labelPosition=right;points=[];portConstraint=eastwest;strokeColor=inherit;" parent="aifYJP49HdyUbDu9bETy-6" vertex="1">
          <mxGeometry y="50" width="360" height="8" as="geometry" />
        </mxCell>
        <mxCell id="aifYJP49HdyUbDu9bETy-9" value="+ getProductList() :  List&lt;ProductDTO&gt;&#xa;+ getProductDetail(ProductDTO) : ProductDTO&#xa;+ setAddProduct(ProductDTO) : List&lt;ProductOptionDTO&gt; int " style="text;strokeColor=none;fillColor=none;align=left;verticalAlign=top;spacingLeft=4;spacingRight=4;overflow=hidden;rotatable=0;points=[[0,0.5],[1,0.5]];portConstraint=eastwest;" parent="aifYJP49HdyUbDu9bETy-6" vertex="1">
          <mxGeometry y="58" width="360" height="82" as="geometry" />
        </mxCell>
        <mxCell id="aifYJP49HdyUbDu9bETy-10" value="ProductController" style="swimlane;fontStyle=1;align=center;verticalAlign=top;childLayout=stackLayout;horizontal=1;startSize=26;horizontalStack=0;resizeParent=1;resizeParentMax=0;resizeLast=0;collapsible=1;marginBottom=0;" parent="1" vertex="1">
          <mxGeometry x="40" y="60" width="280" height="140" as="geometry" />
        </mxCell>
        <mxCell id="aifYJP49HdyUbDu9bETy-11" value="- productService : ProductService" style="text;strokeColor=none;fillColor=none;align=left;verticalAlign=top;spacingLeft=4;spacingRight=4;overflow=hidden;rotatable=0;points=[[0,0.5],[1,0.5]];portConstraint=eastwest;" parent="aifYJP49HdyUbDu9bETy-10" vertex="1">
          <mxGeometry y="26" width="280" height="26" as="geometry" />
        </mxCell>
        <mxCell id="aifYJP49HdyUbDu9bETy-12" value="" style="line;strokeWidth=1;fillColor=none;align=left;verticalAlign=middle;spacingTop=-1;spacingLeft=3;spacingRight=3;rotatable=0;labelPosition=right;points=[];portConstraint=eastwest;strokeColor=inherit;" parent="aifYJP49HdyUbDu9bETy-10" vertex="1">
          <mxGeometry y="52" width="280" height="8" as="geometry" />
        </mxCell>
        <mxCell id="aifYJP49HdyUbDu9bETy-13" value="+ getProductList() :  ModelAndView&#xa;+ getProductDetail(ProductDTO) : String&#xa;+ setAddProduct(ProductDTO) : String&#xa;+ setAddProduct() : void" style="text;strokeColor=none;fillColor=none;align=left;verticalAlign=top;spacingLeft=4;spacingRight=4;overflow=hidden;rotatable=0;points=[[0,0.5],[1,0.5]];portConstraint=eastwest;" parent="aifYJP49HdyUbDu9bETy-10" vertex="1">
          <mxGeometry y="60" width="280" height="80" as="geometry" />
        </mxCell>
        <mxCell id="aifYJP49HdyUbDu9bETy-15" value="" style="endArrow=classic;html=1;rounded=0;fontSize=18;exitX=1;exitY=0.5;exitDx=0;exitDy=0;entryX=0;entryY=0.5;entryDx=0;entryDy=0;" parent="1" source="aifYJP49HdyUbDu9bETy-13" target="aifYJP49HdyUbDu9bETy-9" edge="1">
          <mxGeometry width="50" height="50" relative="1" as="geometry">
            <mxPoint x="610" y="360" as="sourcePoint" />
            <mxPoint x="660" y="310" as="targetPoint" />
          </mxGeometry>
        </mxCell>
        <mxCell id="aifYJP49HdyUbDu9bETy-16" value="" style="endArrow=classic;html=1;rounded=0;fontSize=18;exitX=1;exitY=0.5;exitDx=0;exitDy=0;entryX=0;entryY=0.5;entryDx=0;entryDy=0;" parent="1" source="aifYJP49HdyUbDu9bETy-9" target="aifYJP49HdyUbDu9bETy-4" edge="1">
          <mxGeometry width="50" height="50" relative="1" as="geometry">
            <mxPoint x="830" y="270" as="sourcePoint" />
            <mxPoint x="880" y="220" as="targetPoint" />
          </mxGeometry>
        </mxCell>
      </root>
    </mxGraphModel>
  </diagram>
  <diagram id="sVu2otVe9EUAvuTnqOVU" name="페이지-3">
    <mxGraphModel dx="1641" dy="689" grid="1" gridSize="10" guides="1" tooltips="1" connect="1" arrows="1" fold="1" page="1" pageScale="1" pageWidth="1169" pageHeight="827" math="0" shadow="0">
      <root>
        <mxCell id="0" />
        <mxCell id="1" parent="0" />
        <mxCell id="b7pIQws3qkWmgiwaMkAN-1" value="Member" style="text;html=1;strokeColor=none;fillColor=none;align=center;verticalAlign=middle;whiteSpace=wrap;rounded=0;fontSize=18;" parent="1" vertex="1">
          <mxGeometry x="43" y="40" width="90" height="30" as="geometry" />
        </mxCell>
        <mxCell id="b7pIQws3qkWmgiwaMkAN-2" value="ProductDAO" style="swimlane;fontStyle=1;align=center;verticalAlign=top;childLayout=stackLayout;horizontal=1;startSize=26;horizontalStack=0;resizeParent=1;resizeParentMax=0;resizeLast=0;collapsible=1;marginBottom=0;" parent="1" vertex="1">
          <mxGeometry x="847" y="90" width="280" height="130" as="geometry" />
        </mxCell>
        <mxCell id="b7pIQws3qkWmgiwaMkAN-3" value="- sqlSession : SqlSession&#xa;-NAMESPACE : String" style="text;strokeColor=none;fillColor=none;align=left;verticalAlign=top;spacingLeft=4;spacingRight=4;overflow=hidden;rotatable=0;points=[[0,0.5],[1,0.5]];portConstraint=eastwest;" parent="b7pIQws3qkWmgiwaMkAN-2" vertex="1">
          <mxGeometry y="26" width="280" height="34" as="geometry" />
        </mxCell>
        <mxCell id="b7pIQws3qkWmgiwaMkAN-4" value="" style="line;strokeWidth=1;fillColor=none;align=left;verticalAlign=middle;spacingTop=-1;spacingLeft=3;spacingRight=3;rotatable=0;labelPosition=right;points=[];portConstraint=eastwest;strokeColor=inherit;" parent="b7pIQws3qkWmgiwaMkAN-2" vertex="1">
          <mxGeometry y="60" width="280" height="8" as="geometry" />
        </mxCell>
        <mxCell id="b7pIQws3qkWmgiwaMkAN-5" value="+ setAddMember(MemberDTO) : int " style="text;strokeColor=none;fillColor=none;align=left;verticalAlign=top;spacingLeft=4;spacingRight=4;overflow=hidden;rotatable=0;points=[[0,0.5],[1,0.5]];portConstraint=eastwest;" parent="b7pIQws3qkWmgiwaMkAN-2" vertex="1">
          <mxGeometry y="68" width="280" height="62" as="geometry" />
        </mxCell>
        <mxCell id="b7pIQws3qkWmgiwaMkAN-6" value="ProductService" style="swimlane;fontStyle=1;align=center;verticalAlign=top;childLayout=stackLayout;horizontal=1;startSize=26;horizontalStack=0;resizeParent=1;resizeParentMax=0;resizeLast=0;collapsible=1;marginBottom=0;" parent="1" vertex="1">
          <mxGeometry x="407" y="90" width="360" height="140" as="geometry" />
        </mxCell>
        <mxCell id="b7pIQws3qkWmgiwaMkAN-7" value="- memberDAO : MemberDAO" style="text;strokeColor=none;fillColor=none;align=left;verticalAlign=top;spacingLeft=4;spacingRight=4;overflow=hidden;rotatable=0;points=[[0,0.5],[1,0.5]];portConstraint=eastwest;" parent="b7pIQws3qkWmgiwaMkAN-6" vertex="1">
          <mxGeometry y="26" width="360" height="24" as="geometry" />
        </mxCell>
        <mxCell id="b7pIQws3qkWmgiwaMkAN-8" value="" style="line;strokeWidth=1;fillColor=none;align=left;verticalAlign=middle;spacingTop=-1;spacingLeft=3;spacingRight=3;rotatable=0;labelPosition=right;points=[];portConstraint=eastwest;strokeColor=inherit;" parent="b7pIQws3qkWmgiwaMkAN-6" vertex="1">
          <mxGeometry y="50" width="360" height="8" as="geometry" />
        </mxCell>
        <mxCell id="b7pIQws3qkWmgiwaMkAN-9" value="+ setAddMember(MemberDTO) : List&lt;MemberOptionDTO&gt; int " style="text;strokeColor=none;fillColor=none;align=left;verticalAlign=top;spacingLeft=4;spacingRight=4;overflow=hidden;rotatable=0;points=[[0,0.5],[1,0.5]];portConstraint=eastwest;" parent="b7pIQws3qkWmgiwaMkAN-6" vertex="1">
          <mxGeometry y="58" width="360" height="82" as="geometry" />
        </mxCell>
        <mxCell id="b7pIQws3qkWmgiwaMkAN-10" value="MemberController" style="swimlane;fontStyle=1;align=center;verticalAlign=top;childLayout=stackLayout;horizontal=1;startSize=26;horizontalStack=0;resizeParent=1;resizeParentMax=0;resizeLast=0;collapsible=1;marginBottom=0;" parent="1" vertex="1">
          <mxGeometry x="47" y="90" width="280" height="140" as="geometry" />
        </mxCell>
        <mxCell id="b7pIQws3qkWmgiwaMkAN-11" value="- memberService : MemberService" style="text;strokeColor=none;fillColor=none;align=left;verticalAlign=top;spacingLeft=4;spacingRight=4;overflow=hidden;rotatable=0;points=[[0,0.5],[1,0.5]];portConstraint=eastwest;" parent="b7pIQws3qkWmgiwaMkAN-10" vertex="1">
          <mxGeometry y="26" width="280" height="26" as="geometry" />
        </mxCell>
        <mxCell id="b7pIQws3qkWmgiwaMkAN-12" value="" style="line;strokeWidth=1;fillColor=none;align=left;verticalAlign=middle;spacingTop=-1;spacingLeft=3;spacingRight=3;rotatable=0;labelPosition=right;points=[];portConstraint=eastwest;strokeColor=inherit;" parent="b7pIQws3qkWmgiwaMkAN-10" vertex="1">
          <mxGeometry y="52" width="280" height="8" as="geometry" />
        </mxCell>
        <mxCell id="b7pIQws3qkWmgiwaMkAN-13" value="+ setAddProduct() : void&#xa;+ setAddMember(MemberDTO) : String" style="text;strokeColor=none;fillColor=none;align=left;verticalAlign=top;spacingLeft=4;spacingRight=4;overflow=hidden;rotatable=0;points=[[0,0.5],[1,0.5]];portConstraint=eastwest;" parent="b7pIQws3qkWmgiwaMkAN-10" vertex="1">
          <mxGeometry y="60" width="280" height="80" as="geometry" />
        </mxCell>
        <mxCell id="b7pIQws3qkWmgiwaMkAN-14" value="" style="endArrow=classic;html=1;rounded=0;fontSize=18;exitX=1;exitY=0.5;exitDx=0;exitDy=0;entryX=0;entryY=0.5;entryDx=0;entryDy=0;" parent="1" source="b7pIQws3qkWmgiwaMkAN-13" target="b7pIQws3qkWmgiwaMkAN-9" edge="1">
          <mxGeometry width="50" height="50" relative="1" as="geometry">
            <mxPoint x="617" y="390" as="sourcePoint" />
            <mxPoint x="667" y="340" as="targetPoint" />
          </mxGeometry>
        </mxCell>
        <mxCell id="b7pIQws3qkWmgiwaMkAN-15" value="" style="endArrow=classic;html=1;rounded=0;fontSize=18;exitX=1;exitY=0.5;exitDx=0;exitDy=0;entryX=0;entryY=0.5;entryDx=0;entryDy=0;" parent="1" source="b7pIQws3qkWmgiwaMkAN-9" target="b7pIQws3qkWmgiwaMkAN-5" edge="1">
          <mxGeometry width="50" height="50" relative="1" as="geometry">
            <mxPoint x="837" y="300" as="sourcePoint" />
            <mxPoint x="887" y="250" as="targetPoint" />
          </mxGeometry>
        </mxCell>
        <mxCell id="LOgX5CFgkKMS9m0JW4rU-1" value="BankBookDAO" style="swimlane;fontStyle=1;align=center;verticalAlign=top;childLayout=stackLayout;horizontal=1;startSize=26;horizontalStack=0;resizeParent=1;resizeParentMax=0;resizeLast=0;collapsible=1;marginBottom=0;" vertex="1" parent="1">
          <mxGeometry x="857" y="370" width="270" height="170" as="geometry" />
        </mxCell>
        <mxCell id="LOgX5CFgkKMS9m0JW4rU-2" value="- sqlSession SqlSession&#xa;- NAMESAPCE String" style="text;strokeColor=none;fillColor=none;align=left;verticalAlign=top;spacingLeft=4;spacingRight=4;overflow=hidden;rotatable=0;points=[[0,0.5],[1,0.5]];portConstraint=eastwest;" vertex="1" parent="LOgX5CFgkKMS9m0JW4rU-1">
          <mxGeometry y="26" width="270" height="54" as="geometry" />
        </mxCell>
        <mxCell id="LOgX5CFgkKMS9m0JW4rU-3" value="" style="line;strokeWidth=1;fillColor=none;align=left;verticalAlign=middle;spacingTop=-1;spacingLeft=3;spacingRight=3;rotatable=0;labelPosition=right;points=[];portConstraint=eastwest;strokeColor=inherit;" vertex="1" parent="LOgX5CFgkKMS9m0JW4rU-1">
          <mxGeometry y="80" width="270" height="8" as="geometry" />
        </mxCell>
        <mxCell id="LOgX5CFgkKMS9m0JW4rU-4" value="+ getBankBookList() List&lt;BankBookDTO&gt;&#xa;+ getBankBookDetail(BankBookDTO) BankBookDTO&#xa;+ setBankBookAdd(BankBookDTO)  int&#xa;+ setBankBookUpdate(BankBookDTO) int&#xa;+ setBankBookDelete(BankBookDTO) int" style="text;strokeColor=none;fillColor=none;align=left;verticalAlign=top;spacingLeft=4;spacingRight=4;overflow=hidden;rotatable=0;points=[[0,0.5],[1,0.5]];portConstraint=eastwest;" vertex="1" parent="LOgX5CFgkKMS9m0JW4rU-1">
          <mxGeometry y="88" width="270" height="82" as="geometry" />
        </mxCell>
        <mxCell id="LOgX5CFgkKMS9m0JW4rU-5" value="BankBook" style="text;html=1;align=center;verticalAlign=middle;resizable=0;points=[];autosize=1;strokeColor=none;fillColor=none;" vertex="1" parent="1">
          <mxGeometry x="-20" y="310" width="80" height="30" as="geometry" />
        </mxCell>
        <mxCell id="LOgX5CFgkKMS9m0JW4rU-6" value="BankBookService" style="swimlane;fontStyle=1;align=center;verticalAlign=top;childLayout=stackLayout;horizontal=1;startSize=26;horizontalStack=0;resizeParent=1;resizeParentMax=0;resizeLast=0;collapsible=1;marginBottom=0;" vertex="1" parent="1">
          <mxGeometry x="480" y="370" width="270" height="170" as="geometry" />
        </mxCell>
        <mxCell id="LOgX5CFgkKMS9m0JW4rU-7" value="- bankBookDAO BankBookDAO" style="text;strokeColor=none;fillColor=none;align=left;verticalAlign=top;spacingLeft=4;spacingRight=4;overflow=hidden;rotatable=0;points=[[0,0.5],[1,0.5]];portConstraint=eastwest;" vertex="1" parent="LOgX5CFgkKMS9m0JW4rU-6">
          <mxGeometry y="26" width="270" height="54" as="geometry" />
        </mxCell>
        <mxCell id="LOgX5CFgkKMS9m0JW4rU-8" value="" style="line;strokeWidth=1;fillColor=none;align=left;verticalAlign=middle;spacingTop=-1;spacingLeft=3;spacingRight=3;rotatable=0;labelPosition=right;points=[];portConstraint=eastwest;strokeColor=inherit;" vertex="1" parent="LOgX5CFgkKMS9m0JW4rU-6">
          <mxGeometry y="80" width="270" height="8" as="geometry" />
        </mxCell>
        <mxCell id="LOgX5CFgkKMS9m0JW4rU-9" value="+ getBankBookList() List&lt;BankBookDTO&gt;&#xa;+ getBankBookDetail(BankBookDTO) BankBookDTO&#xa;+ setBankBookAdd(BankBookDTO)  int&#xa;+ setBankBookUpdate(BankBookDTO) int&#xa;+ setBankBookDelete(BankBookDTO) int" style="text;strokeColor=none;fillColor=none;align=left;verticalAlign=top;spacingLeft=4;spacingRight=4;overflow=hidden;rotatable=0;points=[[0,0.5],[1,0.5]];portConstraint=eastwest;" vertex="1" parent="LOgX5CFgkKMS9m0JW4rU-6">
          <mxGeometry y="88" width="270" height="82" as="geometry" />
        </mxCell>
        <mxCell id="LOgX5CFgkKMS9m0JW4rU-11" value="" style="edgeStyle=orthogonalEdgeStyle;rounded=0;orthogonalLoop=1;jettySize=auto;html=1;" edge="1" parent="1" source="LOgX5CFgkKMS9m0JW4rU-7" target="LOgX5CFgkKMS9m0JW4rU-2">
          <mxGeometry relative="1" as="geometry" />
        </mxCell>
        <mxCell id="LOgX5CFgkKMS9m0JW4rU-16" value="BankBookController&#xa;" style="swimlane;fontStyle=1;align=center;verticalAlign=top;childLayout=stackLayout;horizontal=1;startSize=26;horizontalStack=0;resizeParent=1;resizeParentMax=0;resizeLast=0;collapsible=1;marginBottom=0;" vertex="1" parent="1">
          <mxGeometry x="-20" y="370" width="370" height="170" as="geometry" />
        </mxCell>
        <mxCell id="LOgX5CFgkKMS9m0JW4rU-17" value="- bankBookService BankBookService&#xa;" style="text;strokeColor=none;fillColor=none;align=left;verticalAlign=top;spacingLeft=4;spacingRight=4;overflow=hidden;rotatable=0;points=[[0,0.5],[1,0.5]];portConstraint=eastwest;" vertex="1" parent="LOgX5CFgkKMS9m0JW4rU-16">
          <mxGeometry y="26" width="370" height="54" as="geometry" />
        </mxCell>
        <mxCell id="LOgX5CFgkKMS9m0JW4rU-18" value="" style="line;strokeWidth=1;fillColor=none;align=left;verticalAlign=middle;spacingTop=-1;spacingLeft=3;spacingRight=3;rotatable=0;labelPosition=right;points=[];portConstraint=eastwest;strokeColor=inherit;" vertex="1" parent="LOgX5CFgkKMS9m0JW4rU-16">
          <mxGeometry y="80" width="370" height="8" as="geometry" />
        </mxCell>
        <mxCell id="LOgX5CFgkKMS9m0JW4rU-19" value="+ getBankBookList() ModelAndView&#xa;+ getBankBookDetail(BankBookDTO) ModelAndView&#xa;+ setBankBookAdd(BankBookDTO)  ModelAndView&#xa;+ setBankBookUpdate(BankBookDTO) ModelAndView&#xa;+ setBankBookDelete(BankBookDTO) ModelAndView" style="text;strokeColor=none;fillColor=none;align=left;verticalAlign=top;spacingLeft=4;spacingRight=4;overflow=hidden;rotatable=0;points=[[0,0.5],[1,0.5]];portConstraint=eastwest;" vertex="1" parent="LOgX5CFgkKMS9m0JW4rU-16">
          <mxGeometry y="88" width="370" height="82" as="geometry" />
        </mxCell>
        <mxCell id="LOgX5CFgkKMS9m0JW4rU-20" value="" style="edgeStyle=orthogonalEdgeStyle;rounded=0;orthogonalLoop=1;jettySize=auto;html=1;entryX=0;entryY=0.5;entryDx=0;entryDy=0;" edge="1" parent="1" source="LOgX5CFgkKMS9m0JW4rU-17" target="LOgX5CFgkKMS9m0JW4rU-7">
          <mxGeometry relative="1" as="geometry" />
        </mxCell>
      </root>
    </mxGraphModel>
  </diagram>
  <diagram id="U6OomxgaApmtPFNDQMz0" name="페이지-4">
    <mxGraphModel dx="2514" dy="889" grid="1" gridSize="10" guides="1" tooltips="1" connect="1" arrows="1" fold="1" page="1" pageScale="1" pageWidth="827" pageHeight="1169" math="0" shadow="0">
      <root>
        <mxCell id="0" />
        <mxCell id="1" parent="0" />
        <mxCell id="FdQjhj3yk9JTMJLbzYWu-1" value="Windows" style="rounded=0;whiteSpace=wrap;html=1;" vertex="1" parent="1">
          <mxGeometry x="420" y="420" width="120" height="60" as="geometry" />
        </mxCell>
        <mxCell id="FdQjhj3yk9JTMJLbzYWu-2" value="Document" style="rounded=0;whiteSpace=wrap;html=1;" vertex="1" parent="1">
          <mxGeometry x="50" y="600" width="120" height="60" as="geometry" />
        </mxCell>
        <mxCell id="FdQjhj3yk9JTMJLbzYWu-3" value="Location(url)" style="rounded=0;whiteSpace=wrap;html=1;" vertex="1" parent="1">
          <mxGeometry x="240" y="600" width="120" height="60" as="geometry" />
        </mxCell>
        <mxCell id="FdQjhj3yk9JTMJLbzYWu-4" value="History(뒤로가기 앞으로가기)" style="rounded=0;whiteSpace=wrap;html=1;" vertex="1" parent="1">
          <mxGeometry x="420" y="600" width="120" height="60" as="geometry" />
        </mxCell>
        <mxCell id="FdQjhj3yk9JTMJLbzYWu-5" value="Nevigater&lt;br&gt;(웹 브라우저의 정보관리)" style="rounded=0;whiteSpace=wrap;html=1;" vertex="1" parent="1">
          <mxGeometry x="600" y="600" width="120" height="60" as="geometry" />
        </mxCell>
        <mxCell id="FdQjhj3yk9JTMJLbzYWu-6" value="Screen(화면)" style="rounded=0;whiteSpace=wrap;html=1;" vertex="1" parent="1">
          <mxGeometry x="790" y="600" width="120" height="60" as="geometry" />
        </mxCell>
        <mxCell id="FdQjhj3yk9JTMJLbzYWu-8" value="html" style="rounded=0;whiteSpace=wrap;html=1;" vertex="1" parent="1">
          <mxGeometry x="50" y="720" width="120" height="60" as="geometry" />
        </mxCell>
        <mxCell id="FdQjhj3yk9JTMJLbzYWu-9" value="head" style="rounded=0;whiteSpace=wrap;html=1;" vertex="1" parent="1">
          <mxGeometry x="-90" y="820" width="120" height="60" as="geometry" />
        </mxCell>
        <mxCell id="FdQjhj3yk9JTMJLbzYWu-10" value="body" style="rounded=0;whiteSpace=wrap;html=1;" vertex="1" parent="1">
          <mxGeometry x="190" y="820" width="120" height="60" as="geometry" />
        </mxCell>
        <mxCell id="FdQjhj3yk9JTMJLbzYWu-11" value="h1&lt;br&gt;" style="rounded=0;whiteSpace=wrap;html=1;" vertex="1" parent="1">
          <mxGeometry x="120" y="930" width="120" height="60" as="geometry" />
        </mxCell>
        <mxCell id="FdQjhj3yk9JTMJLbzYWu-12" value="button" style="rounded=0;whiteSpace=wrap;html=1;" vertex="1" parent="1">
          <mxGeometry x="320" y="930" width="120" height="60" as="geometry" />
        </mxCell>
        <mxCell id="FdQjhj3yk9JTMJLbzYWu-13" value="text" style="rounded=0;whiteSpace=wrap;html=1;" vertex="1" parent="1">
          <mxGeometry x="120" y="1040" width="120" height="60" as="geometry" />
        </mxCell>
        <mxCell id="FdQjhj3yk9JTMJLbzYWu-14" value="div" style="rounded=0;whiteSpace=wrap;html=1;" vertex="1" parent="1">
          <mxGeometry x="510" y="930" width="120" height="60" as="geometry" />
        </mxCell>
        <mxCell id="FdQjhj3yk9JTMJLbzYWu-15" value="ul" style="rounded=0;whiteSpace=wrap;html=1;" vertex="1" parent="1">
          <mxGeometry x="510" y="1040" width="120" height="60" as="geometry" />
        </mxCell>
        <mxCell id="FdQjhj3yk9JTMJLbzYWu-16" value="li" style="rounded=0;whiteSpace=wrap;html=1;" vertex="1" parent="1">
          <mxGeometry x="510" y="1140" width="120" height="60" as="geometry" />
        </mxCell>
        <mxCell id="FdQjhj3yk9JTMJLbzYWu-17" value="&lt;font style=&quot;font-size: 36px;&quot;&gt;Tree 구조, DOM 구조&lt;/font&gt;" style="text;html=1;strokeColor=none;fillColor=none;align=center;verticalAlign=middle;whiteSpace=wrap;rounded=0;" vertex="1" parent="1">
          <mxGeometry x="90" y="410" width="260" height="30" as="geometry" />
        </mxCell>
        <mxCell id="FdQjhj3yk9JTMJLbzYWu-19" value="" style="endArrow=classic;html=1;rounded=0;fontSize=36;exitX=0;exitY=0.5;exitDx=0;exitDy=0;entryX=0.692;entryY=0.007;entryDx=0;entryDy=0;entryPerimeter=0;" edge="1" parent="1" source="FdQjhj3yk9JTMJLbzYWu-1" target="FdQjhj3yk9JTMJLbzYWu-2">
          <mxGeometry width="50" height="50" relative="1" as="geometry">
            <mxPoint x="430" y="820" as="sourcePoint" />
            <mxPoint x="410" y="860" as="targetPoint" />
            <Array as="points">
              <mxPoint x="300" y="520" />
            </Array>
          </mxGeometry>
        </mxCell>
        <mxCell id="FdQjhj3yk9JTMJLbzYWu-20" value="" style="endArrow=classic;html=1;rounded=0;fontSize=36;exitX=0;exitY=1;exitDx=0;exitDy=0;entryX=0.75;entryY=0;entryDx=0;entryDy=0;" edge="1" parent="1" source="FdQjhj3yk9JTMJLbzYWu-1" target="FdQjhj3yk9JTMJLbzYWu-3">
          <mxGeometry width="50" height="50" relative="1" as="geometry">
            <mxPoint x="430" y="460" as="sourcePoint" />
            <mxPoint x="143" y="610" as="targetPoint" />
            <Array as="points" />
          </mxGeometry>
        </mxCell>
        <mxCell id="FdQjhj3yk9JTMJLbzYWu-21" value="" style="endArrow=classic;html=1;rounded=0;fontSize=36;exitX=0.5;exitY=1;exitDx=0;exitDy=0;entryX=0.5;entryY=0;entryDx=0;entryDy=0;" edge="1" parent="1" source="FdQjhj3yk9JTMJLbzYWu-1" target="FdQjhj3yk9JTMJLbzYWu-4">
          <mxGeometry width="50" height="50" relative="1" as="geometry">
            <mxPoint x="510" y="480" as="sourcePoint" />
            <mxPoint x="420" y="600" as="targetPoint" />
            <Array as="points" />
          </mxGeometry>
        </mxCell>
        <mxCell id="FdQjhj3yk9JTMJLbzYWu-22" value="" style="endArrow=classic;html=1;rounded=0;fontSize=36;exitX=1;exitY=1;exitDx=0;exitDy=0;entryX=0.75;entryY=0;entryDx=0;entryDy=0;" edge="1" parent="1" source="FdQjhj3yk9JTMJLbzYWu-1" target="FdQjhj3yk9JTMJLbzYWu-5">
          <mxGeometry width="50" height="50" relative="1" as="geometry">
            <mxPoint x="490" y="490" as="sourcePoint" />
            <mxPoint x="490" y="610" as="targetPoint" />
            <Array as="points" />
          </mxGeometry>
        </mxCell>
        <mxCell id="FdQjhj3yk9JTMJLbzYWu-24" value="" style="endArrow=classic;html=1;rounded=0;fontSize=36;exitX=1;exitY=0.5;exitDx=0;exitDy=0;entryX=0.25;entryY=0;entryDx=0;entryDy=0;" edge="1" parent="1" source="FdQjhj3yk9JTMJLbzYWu-1" target="FdQjhj3yk9JTMJLbzYWu-6">
          <mxGeometry width="50" height="50" relative="1" as="geometry">
            <mxPoint x="540" y="430" as="sourcePoint" />
            <mxPoint x="690" y="550" as="targetPoint" />
            <Array as="points" />
          </mxGeometry>
        </mxCell>
        <mxCell id="FdQjhj3yk9JTMJLbzYWu-25" value="" style="endArrow=classic;html=1;rounded=0;fontSize=36;exitX=0.5;exitY=1;exitDx=0;exitDy=0;entryX=0.5;entryY=0;entryDx=0;entryDy=0;" edge="1" parent="1" source="FdQjhj3yk9JTMJLbzYWu-2" target="FdQjhj3yk9JTMJLbzYWu-8">
          <mxGeometry width="50" height="50" relative="1" as="geometry">
            <mxPoint x="200" y="670" as="sourcePoint" />
            <mxPoint x="200" y="790" as="targetPoint" />
            <Array as="points" />
          </mxGeometry>
        </mxCell>
        <mxCell id="FdQjhj3yk9JTMJLbzYWu-26" value="" style="endArrow=classic;html=1;rounded=0;fontSize=36;exitX=0;exitY=0.75;exitDx=0;exitDy=0;entryX=0.5;entryY=0;entryDx=0;entryDy=0;" edge="1" parent="1" source="FdQjhj3yk9JTMJLbzYWu-8">
          <mxGeometry width="50" height="50" relative="1" as="geometry">
            <mxPoint x="-30.590000000000032" y="700" as="sourcePoint" />
            <mxPoint x="-30.590000000000032" y="820" as="targetPoint" />
            <Array as="points" />
          </mxGeometry>
        </mxCell>
      </root>
    </mxGraphModel>
  </diagram>
</mxfile>
